Bungs.Bunny\'s - Cupid.Capers  [multi.language] H264_MarGelaTu  [multi.language] H264_MarGelaTu.mp4 - http://www.imdb.com/title/tt0155571/

  
Source Tv (V:8,A:8) THANKS TO: zuzuzuzuzu
 General
      Format : MPEG-4
      Format profile : Base Media / Version 2
      Codec ID : mp42
      File size : 286 MiB
      Duration : 23mn 9s
      Overall bit rate : 1 723 Kbps
    
   Video #1
      ID : 1
      Format : AVC
      Format/Info : Advanced Video Codec
      Format profile : High@L3.0
      Format settings, CABAC : Yes
      Format settings, ReFrames : 3 frames
      Codec ID : avc1
      Codec ID/Info : Advanced Video Coding
      Duration : 23mn 9s
      Bit rate mode : Variable
      Bit rate : 1 000 Kbps
      Width : 720 pixels
      Height : 544 pixels
      Display aspect ratio : 4:3
      Frame rate mode : Constant
      Frame rate : 25.000 fps
      Resolution : 24 bits
      Colorimetry : 4:2:0
      Scan type : Progressive
      Bits/(Pixel*Frame) : 0.102
      Stream size : 166 MiB (58%)
      Writing library : x264 core 79
     
   Audio #2
      ID : 2
      Format : AAC
      Format/Info : Advanced Audio Codec
      Format version : Version 4
      Format profile : LC
      Format settings, SBR : No
      Format settings, PS : Yes
      Codec ID : 40
      Duration : 23mn 9s
      Bit rate mode : Variable
      Bit rate : 82.6 Kbps
      Maximum bit rate : 101 Kbps
      Channel(s) : 2 channels
      Channel positions : Front: L R
      Sampling rate : 48.0 KHz
      Resolution : 16 bits
      Stream size : 13.7 MiB (5%)
      Language : English, Czech, French, Italian, Polish, Romanian
      ------------------------------------------------------------

      Enjoy and send, send send ...